<svg xmlns="http://www.w3.org/2000/svg" width="185.377" height="154.48" viewBox="0 0 185.377 154.48"><defs><style>.a{fill:#d95500;}.b{fill:#2b88c9;}.c{fill:#fbc326;}.d{fill:#fff;}.e{fill:#0f3840;}</style></defs><g transform="translate(-357.84 -210.867)"><g transform="translate(361.702 214.729)"><path class="a" d="M409.751,330.951h57.931V222.814H359.547V330.951Z" transform="translate(-359.547 -199.641)"/><path class="b" d="M362.96,235.746h46.346L393.859,220.3l-7.726-7.725Z" transform="translate(-355.236 -212.573)"/><path class="c" d="M376.615,215.987l15.447,15.447H430.68V215.987Z" transform="translate(-337.991 -208.262)"/><path class="b" d="M407.333,233.054v84.965h19.312a15.449,15.449,0,1,1,30.9,0h19.307V283.261h-50.2V248.5h30.9v-7.723a7.746,7.746,0,0,0-7.723-7.723Z" transform="translate(-299.197 -186.708)"/><g transform="translate(19.308 61.793)"><path class="d" d="M415.868,239.88v34.758h50.2V259.189a19.362,19.362,0,0,0-19.307-19.309Z" transform="translate(-307.726 -239.88)"/><path class="b" d="M446.765,279.224A15.449,15.449,0,1,0,431.2,294.671h.12A15.448,15.448,0,0,0,446.765,279.224Z" transform="translate(-307.727 -209.705)"/><path class="b" d="M383.528,294.671a15.389,15.389,0,1,0-.12,0Z" transform="translate(-368.079 -209.705)"/></g></g><g transform="translate(357.84 210.867)"><path class="e" d="M523.908,272.987V268.8a11.6,11.6,0,0,0-11.584-11.586H473.7V237.9a3.862,3.862,0,0,0-3.863-3.861H458.252V222.454a3.862,3.862,0,0,0-3.863-3.863H401.924L395.33,212a3.865,3.865,0,0,0-5.463,0L367.826,234.04H361.7a3.862,3.862,0,0,0-3.863,3.861V346.038A3.862,3.862,0,0,0,361.7,349.9h15.836a19.19,19.19,0,0,0,3.483,7.723h-7.735a3.862,3.862,0,0,0,0,7.723h23.172A19.343,19.343,0,0,0,415.381,349.9h70.3a19.222,19.222,0,0,0,3.483,7.723h-7.735a3.862,3.862,0,0,0,0,7.723H504.6A19.341,19.341,0,0,0,523.521,349.9h15.834a3.862,3.862,0,0,0,3.863-3.863V295.831A23.2,23.2,0,0,0,523.908,272.987Zm-73.379-46.67v7.723H417.372l-7.723-7.723Zm-57.93-6.126,13.849,13.849h-27.7Zm3.86,137.433a11.586,11.586,0,1,1,11.586-11.586A11.6,11.6,0,0,1,396.459,357.624Zm69.516-96.549v65.654H439.712a3.862,3.862,0,1,0,0,7.723h26.263v7.726H415.381a19.313,19.313,0,0,0-37.845,0H365.563V280.384H381.01a3.863,3.863,0,1,0,0-7.726H365.563v-7.723h46.344a3.862,3.862,0,0,0,0-7.723H365.563V241.763H465.975Zm19.7,81.1H473.7v-7.726h15.46A19.2,19.2,0,0,0,485.678,342.177Zm18.92,15.447a11.586,11.586,0,1,1,11.586-11.586A11.6,11.6,0,0,1,504.6,357.624Zm30.9-15.447H523.521A19.343,19.343,0,0,0,504.6,326.728H473.7V264.937h38.623a3.864,3.864,0,0,1,3.86,3.861v3.861H489.152a3.862,3.862,0,0,0-3.863,3.863v34.758a3.862,3.862,0,0,0,3.863,3.863h46.342Zm-34.756-61.793v27.033h-7.726V280.384Zm34.756,27.033H508.461V280.384h11.586a15.464,15.464,0,0,1,15.447,15.447Z" transform="translate(-357.84 -210.867)"/><path class="e" d="M389.5,269.79h2.41a3.862,3.862,0,0,0,0-7.723H389.5a3.862,3.862,0,1,0,0,7.723Z" transform="translate(-322.735 -146.205)"/><path class="e" d="M389.5,239.073h2.41a3.863,3.863,0,0,0,0-7.726H389.5a3.863,3.863,0,0,0,0,7.726Z" transform="translate(-322.735 -185.002)"/></g><g transform="translate(390.666 340.245)"><path class="c" d="M378.139,279.626a5.793,5.793,0,1,0-5.793-5.791A5.8,5.8,0,0,0,378.139,279.626Z" transform="translate(-372.346 -268.04)"/><path class="c" d="M425.927,279.626a5.793,5.793,0,1,0-5.793-5.791A5.8,5.8,0,0,0,425.927,279.626Z" transform="translate(-311.994 -268.04)"/></g></g></svg>