<svg xmlns="http://www.w3.org/2000/svg" width="181.421" height="217.701" viewBox="0 0 181.421 217.701"><defs><style>.a{fill:#2b88c9;}.b{fill:#d95500;}.c{fill:#fbc326;}.d{fill:#0f3840;}</style></defs><g transform="translate(-58.533 -204.04)"><g transform="translate(63.07 208.576)"><rect class="a" width="172.346" height="18.142" transform="translate(0 84.15)"/><path class="b" d="M91.662,316.808h97.057c13.221,0,23.054-10.856,24.04-24.04l3.627-48.528H64l3.627,48.528C68.608,305.952,78.441,316.808,91.662,316.808Z" transform="translate(-54.016 -141.946)"/><g transform="translate(44.428)"><path class="c" d="M90.567,232.96a13.606,13.606,0,1,0-13.609-13.606A13.632,13.632,0,0,0,90.567,232.96Z" transform="translate(-76.958 -205.747)"/><path class="c" d="M111.742,232.96a13.606,13.606,0,1,0-13.606-13.606A13.633,13.633,0,0,0,111.742,232.96Z" transform="translate(-41.856 -205.747)"/></g></g><g transform="translate(58.533 204.04)"><path class="d" d="M235.418,288.192H199.776L186.31,237.965a18.13,18.13,0,1,0-8.926,2.357l.167,0,12.833,47.872H108.1l12.836-47.872.17,0a18.158,18.158,0,1,0-8.932-2.357L98.709,288.192H63.069a4.537,4.537,0,0,0-4.536,4.536v18.143a4.537,4.537,0,0,0,4.536,4.534h5.769l3.314,44.332c1.2,16.1,13.481,28.236,28.563,28.236h97.057c15.081,0,27.359-12.139,28.563-28.236l3.314-44.332h5.769a4.537,4.537,0,0,0,4.536-4.536v-18.14A4.539,4.539,0,0,0,235.418,288.192Zm-67.107-66.009A9.071,9.071,0,1,1,183.8,228.59l-2.033-7.582A4.536,4.536,0,1,0,173,223.357l2.033,7.576A9.08,9.08,0,0,1,168.311,222.183Zm-56.277,0a9.071,9.071,0,1,1,11.419,8.751l2.03-7.576a4.536,4.536,0,1,0-8.762-2.349l-2.03,7.582A9.041,9.041,0,0,1,112.033,222.183ZM217.288,359.062c-.845,11.31-9.237,19.841-19.517,19.841H100.715c-10.282,0-18.671-8.531-19.517-19.841l-3.263-43.654H220.552Zm13.593-52.727H67.606v-9.073h34.569l.019,0,.027,0h94.048l.027,0,.016,0h34.571v9.073Z" transform="translate(-58.533 -204.04)"/><path class="d" d="M78.428,294.713a4.535,4.535,0,0,0,4.536-4.534V253.894a4.536,4.536,0,0,0-9.073,0v36.285A4.537,4.537,0,0,0,78.428,294.713Z" transform="translate(-33.076 -128.923)"/><path class="d" d="M104.028,294.713a4.534,4.534,0,0,0,4.534-4.534V253.894a4.535,4.535,0,0,0-9.07,0v36.285A4.535,4.535,0,0,0,104.028,294.713Z" transform="translate(9.356 -128.923)"/><path class="d" d="M112.615,260.7a4.535,4.535,0,0,0,4.536-4.534V253.9a4.535,4.535,0,1,0-9.07,0v2.27A4.534,4.534,0,0,0,112.615,260.7Z" transform="translate(23.592 -128.923)"/><path class="d" d="M112.615,283.4a4.535,4.535,0,0,0,4.536-4.534V260.722a4.535,4.535,0,1,0-9.07,0v18.143A4.534,4.534,0,0,0,112.615,283.4Z" transform="translate(23.592 -117.609)"/><path class="d" d="M169.14,282.547H78.429a4.535,4.535,0,1,0,0,9.07H169.14a4.535,4.535,0,0,0,0-9.07Z" transform="translate(-33.074 -73.916)"/><path class="d" d="M95.5,273.83a4.537,4.537,0,0,0,4.536-4.534v-2.8a4.536,4.536,0,0,0-9.073,0v2.8A4.537,4.537,0,0,0,95.5,273.83Z" transform="translate(-4.788 -108.04)"/><path class="d" d="M86.922,261.114a4.535,4.535,0,0,0,4.536-4.536V253.9a4.535,4.535,0,1,0-9.07,0v2.681A4.535,4.535,0,0,0,86.922,261.114Z" transform="translate(-18.994 -128.923)"/><path class="d" d="M95.5,276.573a4.537,4.537,0,0,0,4.536-4.536V253.894a4.536,4.536,0,0,0-9.073,0v18.143A4.537,4.537,0,0,0,95.5,276.573Z" transform="translate(-4.788 -128.923)"/><path class="d" d="M86.922,283.4a4.535,4.535,0,0,0,4.536-4.534V260.722a4.535,4.535,0,1,0-9.07,0v18.143A4.534,4.534,0,0,0,86.922,283.4Z" transform="translate(-18.994 -117.609)"/></g></g></svg>